<svg xmlns="http://www.w3.org/2000/svg" xmlns:xlink="http://www.w3.org/1999/xlink" width="1500" height="1500" viewBox="0 0 1500 1500">
  <defs>
    <clipPath id="clip-path">
      <rect id="Rectangle_1585" data-name="Rectangle 1585" width="1274" height="1198" transform="translate(113 151)" fill="#fff"/>
    </clipPath>
    <clipPath id="clip-undraw_blog_post_re_fy5x">
      <rect width="1500" height="1500"/>
    </clipPath>
  </defs>
  <g id="undraw_blog_post_re_fy5x" clip-path="url(#clip-undraw_blog_post_re_fy5x)">
    <rect width="1500" height="1500" fill="#fff"/>
    <g id="undraw_thought_process_re_om58_2_" data-name="undraw_thought_process_re_om58 (2)">
      <rect id="Rectangle_1584" data-name="Rectangle 1584" width="1500" height="1500" fill="#fff"/>
      <g id="Group_227" data-name="Group 227" clip-path="url(#clip-path)">
        <path id="Path_8084" data-name="Path 8084" d="M1134.03,1078.72a52.511,52.511,0,1,1,37.08-15.38A52.5,52.5,0,0,1,1134.03,1078.72Z" fill="#eb9630"/>
        <path id="Path_8085" data-name="Path 8085" d="M1158.24,1024.26h-22.19V999.044a2.015,2.015,0,1,0-4.03,0v25.216h-22.2a2.014,2.014,0,0,0-2.01,2.01,2.012,2.012,0,0,0,.59,1.43,1.989,1.989,0,0,0,1.42.59h22.2v25.21a2.012,2.012,0,0,0,.59,1.43,1.989,1.989,0,0,0,1.42.59,2.015,2.015,0,0,0,2.02-2.02v-25.21h22.19a2.015,2.015,0,1,0,0-4.03Z" fill="#fff"/>
        <path id="Path_8086" data-name="Path 8086" d="M1336.03,1324.47h-23.06L1302,1235.52l34.04.01Z" fill="#d9ab81"/>
        <path id="Path_8087" data-name="Path 8087" d="M1296.49,1317.88h44.49v28h-72.49a28,28,0,0,1,28-28Z" fill="#53470b"/>
        <path id="Path_8088" data-name="Path 8088" d="M1244.24,1324.47h-23.07l-10.96-88.95,34.04.01Z" fill="#d9ab81"/>
        <path id="Path_8089" data-name="Path 8089" d="M1204.7,1317.88h44.48v28h-72.49a28,28,0,0,1,28.01-28Z" fill="#53470b"/>
        <path id="Path_8090" data-name="Path 8090" d="M1353.8,1016.97a18.917,18.917,0,0,1,3.99-28.726l-7.15-42.627,24.85-10.658,9.25,60.339a19.021,19.021,0,0,1-30.94,21.672Z" fill="#d9ab81"/>
        <path id="Path_8091" data-name="Path 8091" d="M1159.24,996.829a18.9,18.9,0,0,0,7.18-14.3,19.171,19.171,0,0,0-1.55-8.049,18.955,18.955,0,0,0-4.82-6.637l14.09-40.861-22.74-14.616-19.09,57.983a19.019,19.019,0,0,0,26.93,26.485Z" fill="#d9ab81"/>
        <path id="Path_8092" data-name="Path 8092" d="M1277.36,695.808a49.54,49.54,0,1,0-49.55-49.54A49.551,49.551,0,0,0,1277.36,695.808Z" fill="#d9ab81"/>
        <path id="Path_8093" data-name="Path 8093" d="M1157.71,966.259a9,9,0,0,1-2.51-.356l-14.45-4.145a9.1,9.1,0,0,1-6.23-11.2l29.81-105.213,41.56-102.012c4.14-10.141,12.77-16.792,22.54-17.356a23.077,23.077,0,0,1,21.74,12.66h0a31.483,31.483,0,0,1,.72,27.776l-47.24,103.293-37.56,90.935a9.077,9.077,0,0,1-8.38,5.615Z" fill="#98aac2"/>
        <path id="Path_8094" data-name="Path 8094" d="M1305.33,687.813l-27.54.489a18.3,18.3,0,0,1-17.94-23.377,42.049,42.049,0,0,0,1.32-6.076,30.614,30.614,0,0,0,.18-6.765,9.994,9.994,0,0,0-19.28-2.84c-4.62.066-14.49-1.443-19.12-1.377-9.83-25.193,11.59-58.158,34.65-70.54,23.51-12.622,54.02.22,63.03,26.528,12.51.225,22.67,12.555,24.28,26.436s-4.1,28.374-12.84,39.013S1311.86,687.7,1305.33,687.813Z" fill="#53470b"/>
        <path id="Path_8095" data-name="Path 8095" d="M1214.83,1316.16a9.117,9.117,0,0,1-9.01-8.08l-10.21-343.374,128.69,9.158.1.828c29.08,243.378,19.14,327.628,19.03,328.448a9.074,9.074,0,0,1-6.54,8.2,9.067,9.067,0,0,1-3.7.28l-28.44.68a9.077,9.077,0,0,1-8.04-8.66l-26.58-248.7a2.824,2.824,0,0,0-1.09-1.61,2.869,2.869,0,0,0-1.86-.52,2.971,2.971,0,0,0-1.88.66,3.019,3.019,0,0,0-1.03,1.71l-10.26,249.52a9.047,9.047,0,0,1-8.16,9.42l-30.12,2c-.3.03-.6.04-.9.04Z" fill="#53470b"/>
        <path id="Path_8096" data-name="Path 8096" d="M1268.23,1005.73q-1.155,0-2.31-.03c-37.01-1.12-65.96-29.106-73.95-37.658a9.028,9.028,0,0,1-2.18-8.265l21.35-90.291-5.67-78.5a77.336,77.336,0,0,1,21.2-59.772,63.865,63.865,0,0,1,49.2-19.9c36.02,1.718,64.44,33.909,64.69,73.284.4,60.984-1.39,65.174-1.98,66.551-17.98,41.948-8.16,100.83-4.73,117.878a9.119,9.119,0,0,1-2.69,8.447C1311.38,996.235,1290.22,1005.73,1268.23,1005.73Z" fill="#98aac2"/>
        <path id="Path_8097" data-name="Path 8097" d="M1361.16,982.782a9.079,9.079,0,0,1-8.84-7.047L1330.3,879.81l-29.52-109.641a31.5,31.5,0,0,1,5.3-27.275A23.112,23.112,0,0,1,1329.62,734c9.54,2.17,16.96,10.156,19.36,20.841L1373.09,862.2l12.03,108.8a9.088,9.088,0,0,1-7.99,10.014l-14.93,1.7A9.056,9.056,0,0,1,1361.16,982.782Z" fill="#98aac2"/>
        <path id="Path_8098" data-name="Path 8098" d="M175.2,993.127a21.666,21.666,0,0,0,3.192-33.072L186.8,772.434l-42.8,4.8,2.487,183.52a21.788,21.788,0,0,0,28.716,32.37Z" fill="#d9ab81"/>
        <path id="Path_8099" data-name="Path 8099" d="M253.283,1310.73l24.361,4.28,24.077-91.91-31.919-6.31Z" fill="#d9ab81"/>
        <path id="Path_8100" data-name="Path 8100" d="M320.648,1345.88l-76.561-13.46,5.2-29.57,46.98,8.26a30.026,30.026,0,0,1,24.38,34.77Z" fill="#53470b"/>
        <path id="Path_8101" data-name="Path 8101" d="M186.42,1322.92h24.734l11.766-95.38h-36.5Z" fill="#d9ab81"/>
        <path id="Path_8102" data-name="Path 8102" d="M258.856,1345.88H181.121v-30.03h47.7a30.042,30.042,0,0,1,30.035,30.03Z" fill="#53470b"/>
        <path id="Path_8103" data-name="Path 8103" d="M291.637,1296.8a8.911,8.911,0,0,1-1.155-.07l-29.112-2.39a9.864,9.864,0,0,1-6.728-3.88,9.742,9.742,0,0,1-1.691-3.58,9.858,9.858,0,0,1-.14-3.96l26.882-150.63-18.164-95.76a3.264,3.264,0,0,0-3.388-2.66,3.228,3.228,0,0,0-2.112.91,3.268,3.268,0,0,0-.994,2.07l-22.709,255.41a9.931,9.931,0,0,1-10.51,8.95l-27.427-1.02a9.848,9.848,0,0,1-9.152-9.34l-1.844-306.118,142.194-17.77,9.933,153.378-.039.16L301.2,1289.28a9.859,9.859,0,0,1-9.565,7.52Z" fill="#53470b"/>
        <path id="Path_8104" data-name="Path 8104" d="M230.274,650.854a49.54,49.54,0,1,0-49.551-49.541A49.546,49.546,0,0,0,230.274,650.854Z" fill="#d9ab81"/>
        <path id="Path_8105" data-name="Path 8105" d="M276.963,1007.11a40.61,40.61,0,0,1-21.9-6.27c-24-15-51.265-9.037-65.38-4.148a9.846,9.846,0,0,1-8.515-.97,9.707,9.707,0,0,1-4.488-7.164L151.01,759.371c-4.3-38.4,18.835-74.5,55.012-85.844q2.038-.639,4.146-1.213a79.845,79.845,0,0,1,66.52,11.543,81.09,81.09,0,0,1,34.634,59.206L332.93,973.786a9.692,9.692,0,0,1-3.081,8.082C322.274,988.874,300.29,1007.1,276.963,1007.11Z" fill="#98aac2"/>
        <path id="Path_8106" data-name="Path 8106" d="M198.8,808.519,140.9,802.153a11.53,11.53,0,0,1-9.9-14.389L145.739,731.6a32.034,32.034,0,0,1,63.664,7.187l2.189,57.839a11.534,11.534,0,0,1-12.788,11.9Z" fill="#98aac2"/>
        <path id="Path_8107" data-name="Path 8107" d="M332.7,985.093a21.666,21.666,0,0,0-.818-33.216L317.61,764.611l-41.94,9.439,24.619,182.369A21.789,21.789,0,0,0,332.7,985.093Z" fill="#d9ab81"/>
        <path id="Path_8108" data-name="Path 8108" d="M259.591,796.747a11.515,11.515,0,0,1-3.669-8.875l2.188-57.839a32.034,32.034,0,0,1,63.664-7.187l14.74,56.167a11.533,11.533,0,0,1-9.9,14.389l-57.908,6.366a11.521,11.521,0,0,1-9.118-3.021Z" fill="#98aac2"/>
        <path id="Path_8109" data-name="Path 8109" d="M227.327,652.72a11.457,11.457,0,0,1-2.616-.3l-.252-.061c-43.566-6.664-53.194-31.892-55.307-42.429-2.188-10.908.3-21.438,5.932-25.527-3.069-9.687-2.577-18.276,1.467-25.54,7.052-12.667,22.356-16.95,24.408-17.474,12.222-9.015,26.845-3,29.506-1.777,23.642-8.745,32.678-1.466,34.312.159,10.568,1.9,17.01,5.98,19.149,12.134,4.016,11.56-8.686,25.939-9.229,26.546l-.282.314-18.924.9a12.823,12.823,0,0,0-12.067,14.758,59.522,59.522,0,0,0,1.938,6.769c3.232,10.1,5.653,18.724,2.53,22a5.067,5.067,0,0,1-5.3.918c-2.959-.79-4.968-.625-5.969.493-1.554,1.733-1.08,6.121,1.336,12.355a11.578,11.578,0,0,1-2.11,11.794,11.235,11.235,0,0,1-8.526,3.968Z" fill="#53470b"/>
        <path id="Path_8110" data-name="Path 8110" d="M397.464,1349H115.017a2.015,2.015,0,1,1,0-4.03H397.464a2.015,2.015,0,1,1,0,4.03Z" fill="#eb9630"/>
        <path id="Path_8111" data-name="Path 8111" d="M1381.99,1349H1099.54a2.015,2.015,0,0,1,0-4.03h282.45a2.015,2.015,0,1,1,0,4.03Z" fill="#eb9630"/>
        <path id="Path_8112" data-name="Path 8112" d="M977.916,1006.22H489.688a70.68,70.68,0,0,1-70.612-70.593V221.6A70.685,70.685,0,0,1,489.688,151H977.916a70.693,70.693,0,0,1,70.614,70.6V935.627a70.688,70.688,0,0,1-70.614,70.593Z" fill="#fff"/>
        <path id="Path_8113" data-name="Path 8113" d="M901.253,717.846h-334.9c-34.211-.164-34.353-52.264,0-52.442h334.9C935.439,665.564,935.625,717.667,901.253,717.846Z" fill="#eb9630"/>
        <path id="Path_8114" data-name="Path 8114" d="M901.253,298.184h-334.9c-34.211-.165-34.353-52.264,0-52.443h334.9C935.439,245.9,935.625,298.005,901.253,298.184Z" fill="#eb9630"/>
        <path id="Path_8115" data-name="Path 8115" d="M901.253,814.664h-334.9c-34.211-.165-34.353-52.264,0-52.443h334.9C935.439,762.381,935.625,814.485,901.253,814.664Z" fill="#eb9630"/>
        <path id="Path_8116" data-name="Path 8116" d="M901.253,911.482h-334.9c-34.211-.165-34.353-52.265,0-52.443h334.9C935.439,859.2,935.625,911.3,901.253,911.482Z" fill="#eb9630"/>
        <path id="Path_8117" data-name="Path 8117" d="M895.2,602.472H572.4a33.323,33.323,0,0,1-33.288-33.281V388.465A33.323,33.323,0,0,1,572.4,355.184H895.2a33.323,33.323,0,0,1,33.288,33.281V569.191A33.323,33.323,0,0,1,895.2,602.472Z" fill="#feefe5"/>
        <path id="Path_8118" data-name="Path 8118" d="M977.916,1006.22H489.688a70.68,70.68,0,0,1-70.612-70.593V221.6A70.685,70.685,0,0,1,489.688,151H977.916a70.693,70.693,0,0,1,70.614,70.6V935.627a70.688,70.688,0,0,1-70.614,70.593ZM489.688,163.1A58.568,58.568,0,0,0,431.181,221.6V935.627a58.568,58.568,0,0,0,58.507,58.494H977.916a58.557,58.557,0,0,0,58.5-58.494V221.6a58.557,58.557,0,0,0-58.5-58.494Z" fill="#edd9c9"/>
      </g>
    </g>
    <ellipse id="Ellipse_1262" data-name="Ellipse 1262" cx="4" cy="5" rx="4" ry="5" transform="translate(267 595)" fill="#551f11"/>
    <g id="Group_228" data-name="Group 228" transform="translate(-208.734 -861)">
      <path id="Path_8119" data-name="Path 8119" d="M502.388,247.667a1.5,1.5,0,0,1-1.493-1.393,52.952,52.952,0,0,0-52.666-49.066c-1.6,0-3.275.081-4.987.241a1.5,1.5,0,0,1-1.44-.747,62.918,62.918,0,0,0-115.059,13.684,1.491,1.491,0,0,1-1.473,1.081l-.4-.012c-.207-.007-.414-.014-.623-.014a44.375,44.375,0,0,0-43.242,35.036,1.5,1.5,0,0,1-1.466,1.189H179.164a1.5,1.5,0,0,1,0-3H278.34A47.4,47.4,0,0,1,324.2,208.446a65.914,65.914,0,0,1,119.723-14.061c1.474-.115,2.92-.173,4.31-.173a55.958,55.958,0,0,1,55.656,51.852,1.5,1.5,0,0,1-1.39,1.6C502.458,247.666,502.423,247.667,502.388,247.667Z" transform="translate(93.334 841.002)" fill="#ff8e28"/>
      <path id="Path_8120" data-name="Path 8120" d="M504.548,301H258.833a1.5,1.5,0,0,1,0-3H504.548a1.5,1.5,0,0,1,0,3Z" transform="translate(73.348 806.883)" fill="#ff8e28"/>
      <path id="Path_8121" data-name="Path 8121" d="M311.237,330h-82.4a1.5,1.5,0,1,1,0-3h82.4a1.5,1.5,0,1,1,0,3Z" transform="translate(80.874 799.608)" fill="#ff8e28"/>
    </g>
    <g id="Group_229" data-name="Group 229" transform="translate(827.266 -716.352)">
      <path id="Path_8119-2" data-name="Path 8119" d="M421.214,226.252a1.124,1.124,0,0,1-1.12-1.045,39.715,39.715,0,0,0-39.5-36.8c-1.2,0-2.456.061-3.741.181a1.123,1.123,0,0,1-1.08-.56,47.19,47.19,0,0,0-86.3,10.264,1.118,1.118,0,0,1-1.105.811l-.3-.009c-.155-.005-.311-.011-.467-.011a33.282,33.282,0,0,0-32.433,26.278,1.124,1.124,0,0,1-1.1.892H178.789a1.124,1.124,0,1,1,0-2.247h74.384a35.55,35.55,0,0,1,34.393-27.17,49.437,49.437,0,0,1,89.8-10.546c1.105-.086,2.19-.129,3.232-.129a41.97,41.97,0,0,1,41.743,38.89,1.124,1.124,0,0,1-1.042,1.2C421.267,226.251,421.241,226.252,421.214,226.252Z" transform="translate(93.334 841.002)" fill="#ff8e28"/>
      <path id="Path_8120-2" data-name="Path 8120" d="M442.75,300.247H258.458a1.124,1.124,0,1,1,0-2.247H442.75a1.124,1.124,0,0,1,0,2.247Z" transform="translate(58.429 781.415)" fill="#ff8e28"/>
      <path id="Path_8121-2" data-name="Path 8121" d="M290.263,329.247H228.458a1.124,1.124,0,0,1,0-2.247h61.805a1.124,1.124,0,0,1,0,2.247Z" transform="translate(71.573 768.709)" fill="#ff8e28"/>
    </g>
  </g>
</svg>
