<svg xmlns="http://www.w3.org/2000/svg" xmlns:xlink="http://www.w3.org/1999/xlink" width="1500" height="1500" viewBox="0 0 1500 1500">
  <defs>
    <clipPath id="clip-undraw_dua_lipa_ixam">
      <rect width="1500" height="1500"/>
    </clipPath>
  </defs>
  <g id="undraw_dua_lipa_ixam" clip-path="url(#clip-undraw_dua_lipa_ixam)">
    <rect width="1500" height="1500" fill="#fff"/>
    <path id="Path_6463" data-name="Path 6463" d="M1040.82,622.79q-1.74,3.75-3.47,7.4-2.7,5.67-5.33,11.12c-.78,1.61-1.56,3.19-2.32,4.77-8.6,17.57-16.63,33.11-23.45,45.89a73.21,73.21,0,0,1-63.81,38.73l-151.65,1.65h-1.6l-13,.14-11.12.12L731,733h-1.38l-17.36.19h-.53l-107,1.16-95.51,1-11.11.12-69,.75H429l-44.75.48h-.48l-141.5,1.53-42.33.46a87.991,87.991,0,0,1-10.79-.54h0c-1.22-.14-2.44-.3-3.65-.49a87.38,87.38,0,0,1-51.29-27.54C116,690,102.75,666.7,93.85,641.31q-1.93-5.49-3.6-11.12C59.44,526,97,391.64,164.6,301.75q4.25-5.64,8.64-11l.07-.08c20.79-25.52,44.1-46.84,68.93-62,44-26.91,92.75-34.49,140.7-11.9,40.57,19.12,78.45,28.11,115.17,30.55,3.71.24,7.42.42,11.11.53,84.23,2.65,163.17-27.7,255.87-47.29,3.69-.78,7.39-1.55,11.12-2.28,66.13-13.16,139.49-20.1,226.73-5.51a189.091,189.091,0,0,1,26.76,6.4q5.77,1.86,11.12,4c41.64,16.94,64.35,48.24,74,87.46q1.37,5.46,2.37,11.11C1134.3,396.08,1084.19,529.9,1040.82,622.79Z" transform="translate(140.011 -38.756)" fill="#dff1fd"/>
    <path id="Path_6464" data-name="Path 6464" d="M576.36,630.19a95.21,95.21,0,0,1-1.87,11.12h93.7V630.19ZM498.11,693l11.11-.09V665.44c-3.81-.17-7.52-.34-11.11-.52ZM265.19,630.19v11.12h198.5V630.19Zm849.68-339.55h-74V203.18q-5.35-2.18-11.12-4v91.5H776.21V198.25c-3.73.73-7.43,1.5-11.12,2.28v90.11H509.22V247.82c-3.69-.11-7.4-.29-11.11-.53v43.35H242.24v-62c-24.83,15.16-48.14,36.48-68.93,62h-.07v.08q-4.4,5.4-8.64,11h8.64V630.19h-83q1.66,5.63,3.6,11.12h79.39v93.62a87,87,0,0,0,12.2,2.79c1.21.19,2.43.35,3.65.49h0a87.991,87.991,0,0,0,10.79.54l42.33-.46v-97H498.11V735.5l11.11-.12V641.31H765.09v91.31l11.12-.12V641.31H1029.7v4.77c.76-1.58,1.54-3.16,2.32-4.77q2.63-5.44,5.33-11.12,1.73-3.65,3.47-7.4v-321h76.42Q1116.23,296.1,1114.87,290.64ZM242.24,630.19V301.75H498.11V630.19Zm267,0V301.75H765.09V630.19Zm520.48,0H776.21V301.75H1029.7Z" transform="translate(140.011 -38.756)" fill="#b0e0f6"/>
    <ellipse id="Ellipse_971" data-name="Ellipse 971" cx="683.333" cy="77.289" rx="683.333" ry="77.289" transform="translate(67 1092.474)" fill="#dff1fd"/>
    <g id="Group_185" data-name="Group 185" transform="translate(422.053 279.317)" opacity="0.3">
      <path id="Path_6384" data-name="Path 6384" d="M396.432,106.417c-2.564-3.5-7.864.282-5.459,3.9.626.945,1.3,1.853,1.951,2.724,7.9,10.661,11.986,23.592,15.507,36.375.871,3.141,1.705,6.5.712,9.594a60.027,60.027,0,0,0-1.632-25.039,155.812,155.812,0,0,0-8.858-23.641,21.372,21.372,0,0,0-2.22-3.914Z" transform="translate(-319.268 -78.005)" fill="#028ffa" opacity="0.5"/>
      <path id="Path_6385" data-name="Path 6385" d="M354.384,124.42c-5.324-.159-6,7.913-.7,8.342,1.386.11,2.8.135,4.122.172,16.3.442,31.725,6.367,46.533,12.71,3.68,1.558,7.447,3.312,9.581,6.649-6.686-7.741-15.47-13.409-24.831-17.58s-19.31-6.907-29.272-9.459a25.493,25.493,0,0,0-5.435-.834Z" transform="translate(-328.415 -73.607)" fill="#028ffa"/>
      <path id="Path_6386" data-name="Path 6386" d="M355.182,140.6c-3.361.123-2.613,4.907.773,4.907.883,0,1.767,0,2.613-.074,10.281-.417,20.856,2.454,31.026,5.545,2.515.761,5.153,1.632,6.981,3.509a56.066,56.066,0,0,0-18.132-9.311,139.388,139.388,0,0,0-19.739-4.343A17.777,17.777,0,0,0,355.182,140.6Z" transform="translate(-327.741 -69.938)" fill="#028ffa" opacity="0.2"/>
      <path id="Path_6387" data-name="Path 6387" d="M411.11,221.04c.957,3.227,5.4,1.313,4.588-1.975-.221-.859-.478-1.705-.712-2.454-2.957-9.814-2.822-20.758-2.331-31.431.11-2.613.307-5.4,1.668-7.631a55.721,55.721,0,0,0-4.515,19.874,138.384,138.384,0,0,0,.687,20.193,17.565,17.565,0,0,0,.613,3.423Z" transform="translate(-314.881 -61.556)" fill="#028ffa" opacity="0.5"/>
      <path id="Path_6388" data-name="Path 6388" d="M360.066,102.515c-2.024-.356-2.184,2.589-.159,3.042l1.57.294c6.2,1.055,12.121,4.085,17.826,7.25a9.667,9.667,0,0,1,3.68,2.981,33.909,33.909,0,0,0-9.643-7.864,84.736,84.736,0,0,0-11.238-5.1,11.128,11.128,0,0,0-2.036-.6Z" transform="translate(-326.503 -78.581)" fill="#028ffa" opacity="0.2"/>
      <path id="Path_6389" data-name="Path 6389" d="M334.726,168.067c-5.14,2.638-.8,9.888,4.478,7.484,1.386-.626,2.724-1.337,4.012-2,15.691-8.146,33.921-11.139,51.845-13.495,4.4-.564,9.091-1.067,13.164.675-11.041-3.128-22.9-3.386-34.351-2.061s-22.524,4.2-33.516,7.214a30.058,30.058,0,0,0-5.631,2.184Z" transform="translate(-332.409 -66.01)" fill="#028ffa"/>
      <path id="Path_6390" data-name="Path 6390" d="M346.478,194.15c-3.68,3.447,2.061,7.508,5.938,4.208,1.018-.871,1.975-1.779,2.9-2.65,11.25-10.551,26.106-18.071,40.9-24.99,3.68-1.693,18.586-3.435,22.573-3.337-10.428.932-31.713,4.183-41.184,8.49a229.978,229.978,0,0,0-26.855,15.065,29.016,29.016,0,0,0-4.269,3.214Z" transform="translate(-329.49 -63.863)" fill="#028ffa" opacity="0.5"/>
      <path id="Path_6391" data-name="Path 6391" d="M367.731,237.612c-1.08,4.907,5.975,5.005,7.275.086.344-1.227.626-2.589.883-3.828,3.251-15.077,11.213-29.7,19.445-43.809,2.024-3.46,13.335-13.384,16.672-15.58-8.048,6.7-23.714,21.481-29.051,30.4a227.749,227.749,0,0,0-13.495,27.665,29.964,29.964,0,0,0-1.73,5.067Z" transform="translate(-324.427 -62.252)" fill="#028ffa"/>
      <path id="Path_6392" data-name="Path 6392" d="M412.345,85.319c-2.454-5.116-9.692-.908-7.361,4.355.589,1.374,1.227,2.711,1.9,4,7.741,15.654,10.4,33.762,12.391,51.526.491,4.367.9,9.017-.871,13.029,3.239-10.955,3.68-22.659,2.552-33.995s-3.766-22.377-6.563-33.308a29.441,29.441,0,0,0-2.049-5.607Z" transform="translate(-316.055 -83.001)" fill="#028ffa"/>
      <path id="Path_6393" data-name="Path 6393" d="M379.391,92.866a.932.932,0,0,0,.429.135.8.8,0,0,0,.589-.54c.626-1.362.27-3.128,1.227-4.282a15,15,0,0,1,2.343,3.926l3.68-1.141a5.57,5.57,0,0,1-.7,4.232,5.619,5.619,0,0,1,1.73,1.227,1.938,1.938,0,0,1,.454,1.951,9.275,9.275,0,0,1-2.6.258,17.333,17.333,0,0,1-.282,4.907.681.681,0,0,1-1.215.466,8.478,8.478,0,0,1-3.03-3.214l-1.349,3.116a1.447,1.447,0,0,1-.613.822.981.981,0,0,1-1.141-.393,2.969,2.969,0,0,1-.417-1.227l-.5-3.116a.785.785,0,0,0-.172-.442.846.846,0,0,0-.552-.159h-3.9c-.221-.687.466-1.337,1.129-1.619s1.46-.515,1.791-1.165c.687-1.313-1.08-3.141-.331-4.282S378.25,92.3,379.391,92.866Z" transform="translate(-323.132 -81.826)" fill="#028ffa"/>
      <path id="Path_6394" data-name="Path 6394" d="M438.757,106.417c2.564-3.5,7.864.282,5.459,3.9-.626.945-1.3,1.853-1.951,2.724-7.9,10.661-11.986,23.592-15.507,36.375-.871,3.141-1.705,6.5-.712,9.594a60.028,60.028,0,0,1,1.632-25.039,155.8,155.8,0,0,1,8.858-23.641,21.373,21.373,0,0,1,2.221-3.913Z" transform="translate(-311.318 -78.005)" fill="#028ffa" opacity="0.5"/>
      <path id="Path_6395" data-name="Path 6395" d="M489.007,124.42c5.324-.159,6,7.913.7,8.342-1.386.11-2.8.135-4.122.172-16.3.442-31.725,6.367-46.533,12.71-3.68,1.558-7.447,3.312-9.581,6.649,6.686-7.741,15.47-13.409,24.831-17.58s19.31-6.907,29.272-9.459a25.493,25.493,0,0,1,5.435-.834Z" transform="translate(-310.398 -73.607)" fill="#028ffa"/>
      <path id="Path_6396" data-name="Path 6396" d="M484.473,140.6c3.361.123,2.613,4.907-.773,4.907-.883,0-1.767,0-2.613-.074-10.281-.417-20.856,2.454-31.026,5.545-2.454.761-5.165,1.632-6.981,3.509a56.065,56.065,0,0,1,18.132-9.311,139.39,139.39,0,0,1,19.8-4.318,17.774,17.774,0,0,1,3.46-.258Z" transform="translate(-307.311 -69.937)" fill="#028ffa" opacity="0.5"/>
      <path id="Path_6397" data-name="Path 6397" d="M476.067,102.515c2.024-.356,2.184,2.589.159,3.042l-1.57.294c-6.2,1.055-12.121,4.085-17.826,7.25a9.668,9.668,0,0,0-3.68,2.981,33.91,33.91,0,0,1,9.643-7.864,84.735,84.735,0,0,1,11.238-5.1,11.125,11.125,0,0,1,2.036-.6Z" transform="translate(-305.027 -78.581)" fill="#028ffa" opacity="0.2"/>
      <path id="Path_6398" data-name="Path 6398" d="M429.568,222.883c-.454,2-3.239,1.006-2.871-1.031.1-.528.221-1.055.331-1.558,1.411-6.134.908-12.759.184-19.249a9.63,9.63,0,0,0-1.313-4.576,34.093,34.093,0,0,1,3.533,11.925,84.783,84.783,0,0,1,.368,12.342A10.549,10.549,0,0,1,429.568,222.883Z" transform="translate(-311.208 -57.265)" fill="#028ffa" opacity="0.2"/>
      <path id="Path_6399" data-name="Path 6399" d="M476.463,212.96c1.583,2.674-2.294,2.454-4-.184-.454-.7-.859-1.4-1.227-2.073-4.821-8.2-12.145-16.292-19.519-24.119a26.867,26.867,0,0,0-6.048-5.214,95.385,95.385,0,0,1,15.863,13.495c4.735,4.907,8.919,10.109,13,15.262a24.8,24.8,0,0,1,1.926,2.834Z" transform="translate(-306.724 -60.689)" fill="#028ffa" opacity="0.5"/>
      <path id="Path_6400" data-name="Path 6400" d="M356.229,212.96c-1.583,2.674,2.306,2.454,4.012-.184.442-.7.859-1.4,1.227-2.073,4.809-8.2,12.133-16.292,19.506-24.119a27.2,27.2,0,0,1,6.06-5.214,94.892,94.892,0,0,0-15.863,13.495c-4.735,4.907-8.919,10.109-13.016,15.262a26.532,26.532,0,0,0-1.926,2.834Z" transform="translate(-327.094 -60.689)" fill="#028ffa" opacity="0.2"/>
      <path id="Path_6401" data-name="Path 6401" d="M398.128,222.883c.466,2,3.239,1.006,2.871-1.031-.086-.528-.221-1.055-.331-1.558-1.411-6.134-.9-12.759-.184-19.249a9.642,9.642,0,0,1,1.325-4.576,34.1,34.1,0,0,0-3.545,11.925,84.779,84.779,0,0,0-.368,12.342,11.487,11.487,0,0,0,.233,2.147Z" transform="translate(-317.578 -57.265)" fill="#028ffa" opacity="0.2"/>
      <path id="Path_6402" data-name="Path 6402" d="M462.867,118.905c2.024-.344,2.171,2.6.159,3.042-.527.123-1.067.209-1.57.294-6.2,1.055-12.121,4.1-17.826,7.25a9.815,9.815,0,0,0-3.68,2.981,34.351,34.351,0,0,1,9.655-7.864,85.232,85.232,0,0,1,11.225-5.091A11.04,11.04,0,0,1,462.867,118.905Z" transform="translate(-308.021 -74.863)" fill="#028ffa" opacity="0.2"/>
      <path id="Path_6403" data-name="Path 6403" d="M446.218,86.756c1.742-1.08,2.993,1.595,1.227,2.76-.442.307-.908.589-1.349.859-5.349,3.3-9.716,8.33-13.826,13.384a9.814,9.814,0,0,0-2.27,4.208,34.229,34.229,0,0,1,6.011-10.894,85.031,85.031,0,0,1,8.514-8.931A11.113,11.113,0,0,1,446.218,86.756Z" transform="translate(-310.278 -82.206)" fill="#028ffa" opacity="0.2"/>
      <path id="Path_6404" data-name="Path 6404" d="M510.888,168.067c5.14,2.638.8,9.888-4.478,7.484-1.386-.626-2.724-1.337-4.012-2-15.691-8.146-33.921-11.139-51.845-13.495-4.4-.564-9.091-1.067-13.164.675,11.041-3.128,22.9-3.386,34.351-2.061s22.524,4.2,33.516,7.214a30.056,30.056,0,0,1,5.631,2.184Z" transform="translate(-308.602 -66.01)" fill="#028ffa"/>
      <path id="Path_6405" data-name="Path 6405" d="M498.708,194.15c3.68,3.447-2.061,7.508-5.938,4.208-1.018-.871-1.975-1.779-2.9-2.65-11.25-10.551-26.107-18.071-40.9-24.99-3.68-1.693-18.586-3.435-22.573-3.337,10.428.932,31.713,4.183,41.184,8.49a229.973,229.973,0,0,1,26.855,15.065,29.016,29.016,0,0,1,4.269,3.214Z" transform="translate(-311.095 -63.863)" fill="#028ffa" opacity="0.5"/>
      <path id="Path_6406" data-name="Path 6406" d="M456.559,243.136c.454,5.018-6.551,4.208-7.226-.834-.172-1.325-.282-2.65-.393-3.9-1.337-15.372-7.361-30.879-13.8-45.907-1.583-3.68-11.557-14.955-14.6-17.543,7.152,7.643,20.856,24.279,25.027,33.8a228.59,228.59,0,0,1,9.949,29.137A27.645,27.645,0,0,1,456.559,243.136Z" transform="translate(-312.424 -62.146)" fill="#028ffa"/>
      <path id="Path_6407" data-name="Path 6407" d="M455.151,92.866a.932.932,0,0,1-.429.135.8.8,0,0,1-.589-.54c-.626-1.362-.27-3.128-1.227-4.282a15.006,15.006,0,0,0-2.343,3.926l-3.68-1.141a5.57,5.57,0,0,0,.7,4.232,5.619,5.619,0,0,0-1.73,1.227,1.938,1.938,0,0,0-.454,1.951,9.275,9.275,0,0,0,2.6.258,17.332,17.332,0,0,0,.282,4.907.681.681,0,0,0,1.214.466,8.477,8.477,0,0,0,3.03-3.214l1.374,3.276a1.447,1.447,0,0,0,.613.822.981.981,0,0,0,1.141-.393,2.97,2.97,0,0,0,.417-1.227l.5-3.116a.786.786,0,0,1,.172-.442.847.847,0,0,1,.552-.159h3.9c.221-.687-.466-1.337-1.129-1.619s-1.46-.515-1.791-1.165c-.687-1.313,1.08-3.141.331-4.282S456.292,92.3,455.151,92.866Z" transform="translate(-306.807 -81.826)" fill="#028ffa"/>
      <path id="Path_6408" data-name="Path 6408" d="M464.224,216.656a.908.908,0,0,1-.429.123c-.282,0-.479-.282-.6-.528-.626-1.362-.258-3.141-1.227-4.282a14.487,14.487,0,0,0-2.343,3.926l-3.68-1.141a5.471,5.471,0,0,0,.7,4.233,5.668,5.668,0,0,0-1.742,1.227,1.9,1.9,0,0,0-.442,1.951,9.275,9.275,0,0,0,2.6.258,17.359,17.359,0,0,0,.27,4.907.907.907,0,0,0,.319.613.9.9,0,0,0,.908-.147,8.661,8.661,0,0,0,3.03-3.214l1.374,3.276a1.533,1.533,0,0,0,.6.822.994.994,0,0,0,1.153-.4,2.9,2.9,0,0,0,.4-1.227l.515-3.116a.785.785,0,0,1,.172-.442.822.822,0,0,1,.54-.159h3.914c.221-.687-.478-1.337-1.141-1.632s-1.448-.5-1.791-1.153c-.675-1.313,1.08-3.153.331-4.282C466.776,214.779,465.365,216.092,464.224,216.656Z" transform="translate(-304.754 -53.749)" fill="#028ffa" opacity="0.2"/>
      <path id="Path_6409" data-name="Path 6409" d="M489.691,133.676a.933.933,0,0,1-.429.135.8.8,0,0,1-.589-.54c-.638-1.362-.27-3.128-1.227-4.282a14.549,14.549,0,0,0-2.343,3.938l-3.68-1.141a5.5,5.5,0,0,0,.7,4.22,5.619,5.619,0,0,0-1.73,1.227,1.938,1.938,0,0,0-.454,1.951,9.274,9.274,0,0,0,2.6.258,16.883,16.883,0,0,0,.282,4.846.908.908,0,0,0,.307.626c.27.172.626,0,.908-.16a8.588,8.588,0,0,0,3.03-3.214l1.374,3.276a1.448,1.448,0,0,0,.613.822.982.982,0,0,0,1.141-.393,2.908,2.908,0,0,0,.417-1.227l.5-3.116a.785.785,0,0,1,.172-.442.846.846,0,0,1,.552-.159h3.9c.221-.687-.466-1.325-1.141-1.619s-1.448-.515-1.779-1.227c-.687-1.313,1.067-3.141.331-4.282C492.3,131.8,490.832,133.112,489.691,133.676Z" transform="translate(-298.973 -72.57)" fill="#028ffa"/>
      <path id="Path_6410" data-name="Path 6410" d="M388.551,229.407a1.227,1.227,0,0,1-.6.184c-.393,0-.663-.393-.822-.748-.871-1.9-.368-4.367-1.718-5.962a20.474,20.474,0,0,0-3.263,5.472l-5.14-1.583a7.655,7.655,0,0,0,.969,5.889,7.814,7.814,0,0,0-2.454,1.644,2.687,2.687,0,0,0-.638,2.711,12.966,12.966,0,0,0,3.68.368,23.926,23.926,0,0,0,.393,6.747,1.227,1.227,0,0,0,.442.859c.368.245.871,0,1.227-.209a11.838,11.838,0,0,0,4.22-4.478l1.914,4.564a2.024,2.024,0,0,0,.859,1.141,1.362,1.362,0,0,0,1.595-.552,4.061,4.061,0,0,0,.564-1.73l.724-4.343a.993.993,0,0,1,.233-.613,1.043,1.043,0,0,1,.761-.221c1.816,0,3.619-.074,5.435-.061.307-.957-.65-1.852-1.57-2.257s-2.036-.712-2.454-1.619c-.945-1.828,1.509-4.392.466-5.975C392.158,226.794,390.183,228.621,388.551,229.407Z" transform="translate(-322.809 -51.275)" fill="#028ffa"/>
      <path id="Path_6411" data-name="Path 6411" d="M346.211,136.5a1.227,1.227,0,0,1-.6.184c-.393,0-.662-.393-.822-.748-.871-1.9-.368-4.367-1.718-5.975a20.356,20.356,0,0,0-3.263,5.484l-5.14-1.595a7.594,7.594,0,0,0,.969,5.889,8.036,8.036,0,0,0-2.454,1.644,2.7,2.7,0,0,0-.638,2.724,13.949,13.949,0,0,0,3.68.368,23.969,23.969,0,0,0,.393,6.747,1.288,1.288,0,0,0,.429.859,1.227,1.227,0,0,0,1.227-.209,11.876,11.876,0,0,0,4.22-4.49l1.914,4.564a2.049,2.049,0,0,0,.846,1.153,1.374,1.374,0,0,0,1.607-.564,3.951,3.951,0,0,0,.564-1.73l.712-4.343a1.092,1.092,0,0,1,.245-.613,1.141,1.141,0,0,1,.761-.221h5.435c.307-.969-.65-1.865-1.583-2.27s-2.024-.712-2.454-1.607c-.945-1.84,1.509-4.392.466-5.975C349.781,133.886,347.855,135.714,346.211,136.5Z" transform="translate(-332.412 -72.35)" fill="#028ffa"/>
      <path id="Path_6412" data-name="Path 6412" d="M473.57,193.472a.748.748,0,0,1-.319.1c-.209,0-.343-.209-.442-.4-.454-1.006-.2-2.319-.908-3.165a10.735,10.735,0,0,0-1.73,2.908l-2.736-.847a4.061,4.061,0,0,0,.515,3.128,4.3,4.3,0,0,0-1.227.883,1.423,1.423,0,0,0-.331,1.435,6.771,6.771,0,0,0,1.926.2,12.993,12.993,0,0,0,.209,3.582.663.663,0,0,0,.233.454c.2.135.466,0,.662-.11a6.134,6.134,0,0,0,2.245-2.38l1.018,2.454a1.08,1.08,0,0,0,.454.6.7.7,0,0,0,.847-.294,1.951,1.951,0,0,0,.307-.908l.38-2.319a.516.516,0,0,1,.123-.319.638.638,0,0,1,.4-.123h2.883c.172-.515-.344-.994-.834-1.227s-1.08-.38-1.325-.859c-.5-.969.8-2.331.245-3.177S474.416,193.055,473.57,193.472Z" transform="translate(-302.04 -58.732)" fill="#028ffa" opacity="0.2"/>
      <path id="Path_6413" data-name="Path 6413" d="M416.025,226.7a.8.8,0,0,1-.331.1c-.2,0-.343-.209-.429-.4-.466-1.006-.2-2.319-.92-3.165a10.734,10.734,0,0,0-1.73,2.908l-2.736-.846a4.11,4.11,0,0,0,.515,3.128,4.4,4.4,0,0,0-1.227.883,1.4,1.4,0,0,0-.344,1.435,6.894,6.894,0,0,0,1.938.2,12.524,12.524,0,0,0,.2,3.582.662.662,0,0,0,.233.454.638.638,0,0,0,.675-.11,6.343,6.343,0,0,0,2.245-2.38l1.006,2.454a1.129,1.129,0,0,0,.454.6.724.724,0,0,0,.859-.294,2.085,2.085,0,0,0,.294-.908l.38-2.319a.724.724,0,0,1,.123-.319.687.687,0,0,1,.4-.123h2.9c.159-.515-.344-.981-.846-1.227s-1.067-.38-1.313-.859c-.5-.969.785-2.331.233-3.177S416.859,226.285,416.025,226.7Z" transform="translate(-315.097 -51.195)" fill="#028ffa" opacity="0.2"/>
      <path id="Path_6414" data-name="Path 6414" d="M360.351,110.392a.749.749,0,0,1-.319.1c-.209,0-.344-.209-.429-.393-.466-1.018-.2-2.319-.92-3.177a10.92,10.92,0,0,0-1.73,2.908l-2.736-.834a4.036,4.036,0,0,0,.515,3.116,4.454,4.454,0,0,0-1.288.883,1.423,1.423,0,0,0-.331,1.435,6.858,6.858,0,0,0,1.926.2,12.991,12.991,0,0,0,.209,3.582.712.712,0,0,0,.233.466.662.662,0,0,0,.662-.11,6.281,6.281,0,0,0,2.245-2.454l1.018,2.454a1.067,1.067,0,0,0,.454.613.736.736,0,0,0,.847-.294,2.049,2.049,0,0,0,.307-.92l.38-2.306a.6.6,0,0,1,.123-.331.662.662,0,0,1,.4-.123h2.9c.159-.515-.356-.981-.846-1.227s-1.08-.38-1.325-.859c-.5-.969.8-2.331.245-3.165S361.161,109.975,360.351,110.392Z" transform="translate(-327.733 -77.576)" fill="#028ffa" opacity="0.5"/>
      <path id="Path_6415" data-name="Path 6415" d="M389.972,175.932a.614.614,0,0,1-.319.1c-.209,0-.356-.209-.442-.393-.466-1.006-.2-2.319-.908-3.177a11.162,11.162,0,0,0-1.742,2.92l-2.724-.846a4.073,4.073,0,0,0,.515,3.128,4.048,4.048,0,0,0-1.288.871,1.423,1.423,0,0,0-.331,1.448,6.758,6.758,0,0,0,1.926.184,12.613,12.613,0,0,0,.209,3.595.687.687,0,0,0,.233.454.662.662,0,0,0,.663-.11,6.244,6.244,0,0,0,2.22-2.392L389,184.164a1.068,1.068,0,0,0,.454.613.736.736,0,0,0,.846-.294,2.208,2.208,0,0,0,.307-.92l.38-2.306a.527.527,0,0,1,.123-.331.564.564,0,0,1,.4-.11H394.4c.172-.5-.344-.981-.834-1.227s-1.08-.38-1.325-.846c-.5-.981.8-2.343.245-3.177S390.818,175.576,389.972,175.932Z" transform="translate(-321.015 -62.71)" fill="#028ffa" opacity="0.5"/>
      <path id="Path_6416" data-name="Path 6416" d="M368.442,150.382a.614.614,0,0,1-.319.1c-.209,0-.343-.209-.429-.393-.466-1.018-.2-2.319-.92-3.177a10.8,10.8,0,0,0-1.73,2.92l-2.736-.846a4.073,4.073,0,0,0,.515,3.128,4,4,0,0,0-1.227.871,1.423,1.423,0,0,0-.343,1.448,7.359,7.359,0,0,0,1.926.184,13.077,13.077,0,0,0,.208,3.595.687.687,0,0,0,.233.454.662.662,0,0,0,.662-.11,6.366,6.366,0,0,0,2.257-2.38l1.006,2.454a1.067,1.067,0,0,0,.454.613.736.736,0,0,0,.846-.294,2.049,2.049,0,0,0,.307-.92l.38-2.306a.6.6,0,0,1,.123-.331.577.577,0,0,1,.4-.11h2.9c.159-.5-.356-.981-.846-1.227s-1.08-.38-1.325-.859c-.5-.969.8-2.331.245-3.165S369.289,149.965,368.442,150.382Z" transform="translate(-325.887 -68.505)" fill="#028ffa" opacity="0.5"/>
      <path id="Path_6417" data-name="Path 6417" d="M460.872,156.4a.748.748,0,0,1-.319.1c-.209,0-.356-.209-.442-.4-.466-1.006-.2-2.319-.908-3.165a10.772,10.772,0,0,0-1.742,2.908l-2.724-.847a4.012,4.012,0,0,0,.515,3.128,4.5,4.5,0,0,0-1.288.871,1.423,1.423,0,0,0-.331,1.448,6.772,6.772,0,0,0,1.926.2,12.548,12.548,0,0,0,.2,3.582.626.626,0,0,0,.245.454c.2.135.454,0,.662-.11a6.343,6.343,0,0,0,2.245-2.38l1.018,2.454a1.018,1.018,0,0,0,.454.6.712.712,0,0,0,.846-.294,2.087,2.087,0,0,0,.294-.92l.38-2.306a.614.614,0,0,1,.135-.319.576.576,0,0,1,.4-.123h2.883c.159-.515-.344-.994-.834-1.227s-1.08-.38-1.325-.859c-.5-.981.8-2.331.245-3.177S461.706,155.985,460.872,156.4Z" transform="translate(-304.934 -67.14)" fill="#028ffa" opacity="0.5"/>
      <path id="Path_6418" data-name="Path 6418" d="M416.024,151.372a.8.8,0,0,1-.331.1c-.2,0-.343-.209-.429-.393-.466-1.018-.2-2.319-.92-3.177a10.918,10.918,0,0,0-1.73,2.908l-2.736-.834a4.122,4.122,0,0,0,.515,3.128,4.134,4.134,0,0,0-1.227.871,1.423,1.423,0,0,0-.343,1.448,7.361,7.361,0,0,0,1.938.184,12.525,12.525,0,0,0,.2,3.582.515.515,0,0,0,.908.356,6.527,6.527,0,0,0,2.245-2.38l1.006,2.454a1.116,1.116,0,0,0,.454.613.761.761,0,0,0,.859-.294,2.2,2.2,0,0,0,.294-.92l.38-2.306a.712.712,0,0,1,.123-.331.6.6,0,0,1,.4-.11h2.9c.159-.5-.344-.981-.846-1.227s-1.067-.38-1.313-.859c-.5-.969.785-2.331.233-3.165S416.859,150.955,416.024,151.372Z" transform="translate(-315.097 -68.281)" fill="#028ffa" opacity="0.2"/>
      <path id="Path_6419" data-name="Path 6419" d="M401.94,157.492a.613.613,0,0,1-.319.1c-.209,0-.344-.209-.429-.393-.466-1.018-.2-2.319-.92-3.177a10.8,10.8,0,0,0-1.73,2.92l-2.736-.846a4.073,4.073,0,0,0,.515,3.128,4.2,4.2,0,0,0-1.227.871,1.448,1.448,0,0,0-.331,1.448,7.36,7.36,0,0,0,1.926.184,13.078,13.078,0,0,0,.208,3.595.687.687,0,0,0,.233.454.662.662,0,0,0,.662-.11,6.245,6.245,0,0,0,2.245-2.38l1.018,2.454a1.068,1.068,0,0,0,.454.613.736.736,0,0,0,.846-.294,2.049,2.049,0,0,0,.307-.92l.38-2.306a.527.527,0,0,1,.123-.331.576.576,0,0,1,.4-.11h2.9c.159-.5-.356-.981-.846-1.227s-1.08-.38-1.325-.847c-.5-.981.8-2.343.245-3.177S402.786,157.075,401.94,157.492Z" transform="translate(-318.286 -66.893)" fill="#028ffa" opacity="0.3"/>
      <path id="Path_6420" data-name="Path 6420" d="M388.842,120.452a.589.589,0,0,1-.319.086c-.209,0-.356-.209-.442-.393-.466-1.006-.2-2.319-.908-3.165a10.772,10.772,0,0,0-1.742,2.908l-2.724-.847a4.012,4.012,0,0,0,.515,3.128,4.049,4.049,0,0,0-1.288.871,1.423,1.423,0,0,0-.331,1.448,7.237,7.237,0,0,0,1.926.2,12.551,12.551,0,0,0,.2,3.582.65.65,0,0,0,.245.454c.2.123.454,0,.663-.11a6.429,6.429,0,0,0,2.245-2.38l1.018,2.454a1.055,1.055,0,0,0,.442.6.736.736,0,0,0,.859-.294,2.134,2.134,0,0,0,.27-.945l.38-2.306a.613.613,0,0,1,.135-.331.564.564,0,0,1,.4-.11h2.883c.16-.515-.344-.994-.834-1.227s-1.08-.368-1.325-.846c-.5-.981.8-2.331.245-3.177S389.676,120.022,388.842,120.452Z" transform="translate(-321.272 -75.294)" fill="#028ffa" opacity="0.2"/>
      <path id="Path_6421" data-name="Path 6421" d="M414.675,168.792a.8.8,0,0,1-.331.1c-.209,0-.344-.209-.429-.4-.466-1.006-.2-2.319-.92-3.165a10.735,10.735,0,0,0-1.73,2.908l-2.736-.847a4.11,4.11,0,0,0,.515,3.128,4.246,4.246,0,0,0-1.227.883,1.4,1.4,0,0,0-.344,1.435,6.857,6.857,0,0,0,1.926.2,12.991,12.991,0,0,0,.209,3.582.663.663,0,0,0,.233.454.613.613,0,0,0,.662-.11,6.282,6.282,0,0,0,2.257-2.38l1.006,2.454a1.079,1.079,0,0,0,.454.6.736.736,0,0,0,.859-.282,2.2,2.2,0,0,0,.294-.92l.38-2.319a.6.6,0,0,1,.123-.319.663.663,0,0,1,.4-.123h2.9c.16-.515-.356-.981-.846-1.227s-1.08-.38-1.325-.859c-.5-.969.8-2.331.245-3.165S415.5,168.375,414.675,168.792Z" transform="translate(-315.403 -64.33)" fill="#028ffa" opacity="0.3"/>
    </g>
    <g id="Group_186" data-name="Group 186" transform="translate(235.073 786.851)" opacity="0.1">
      <path id="Path_6422" data-name="Path 6422" d="M181.9,482.989a13.143,13.143,0,0,1-1.558-.061H180V480.4A10.083,10.083,0,0,1,181.9,482.989Z" transform="translate(-180 -480.4)" fill="#3f3d56"/>
    </g>
    <path id="Path_6423" data-name="Path 6423" d="M204.065,757.358a51.661,51.661,0,0,1-1.116,10.808c-.135.675-.294,1.325-.442,1.963-3.963,15.875-15.127,27.493-28.45,28.217h-1.349c-14.1,0-26.008-12.145-29.934-28.891-.123-.442-.209-.883-.307-1.337a50.853,50.853,0,0,1-1.116-10.808c0-22.684,14.035-41.049,31.357-41.049S204.065,734.674,204.065,757.358Z" transform="translate(46.307 359.946)" fill="#2f2e41"/>
    <path id="Path_6424" data-name="Path 6424" d="M204.074,757.347a51.659,51.659,0,0,1-1.116,10.808c-.135.675-.294,1.325-.442,1.963H201.1a64.116,64.116,0,0,1-10.256-1.411,61.733,61.733,0,0,1-9.14,2.086,62.931,62.931,0,0,1-7.165.675h-2.454a64.15,64.15,0,0,1-8.588-.564,62.4,62.4,0,0,1-13.495-3.349,63.487,63.487,0,0,1-7.275,1.951c-.123-.442-.209-.883-.307-1.337a50.851,50.851,0,0,1-1.116-10.808c0-22.684,14.035-41.049,31.357-41.049S204.074,734.663,204.074,757.347Z" transform="translate(46.297 359.958)" opacity="0.1"/>
    <path id="Path_6425" data-name="Path 6425" d="M284.816,704.487A63.512,63.512,0,0,0,278,675.78L241.1,687.239l32.376-19.028a63.635,63.635,0,0,0-47.846-27.3,63.7,63.7,0,0,0-4.907-6.576L167.7,650.827l43.454-25.542a63.794,63.794,0,0,0-100.316,33.983l45.392,52.225-49.281-35.577A63.794,63.794,0,0,0,164,788.4a63.941,63.941,0,0,0,40.8,1.116,63.794,63.794,0,0,0,77.412-62.236,40.2,40.2,0,0,0-.147-4.22,63.413,63.413,0,0,0,2.748-18.574Z" transform="translate(32.453 336.337)" fill="#028ffa"/>
    <path id="Path_6426" data-name="Path 6426" d="M283.788,699.772a170.027,170.027,0,0,0-59.022-.748c-22.144,3.68-44.779,11.728-66.432,5.827-12.71-3.447-23.714-11.446-36.117-15.949a68.32,68.32,0,0,0-37.307-2.172,63.794,63.794,0,0,0,79.007,85.1,63.941,63.941,0,0,0,40.8,1.116,63.794,63.794,0,0,0,77.559-62.212,40.2,40.2,0,0,0-.147-4.22A61.1,61.1,0,0,0,283.788,699.772Z" transform="translate(32.389 352.879)" opacity="0.1"/>
    <path id="Path_6427" data-name="Path 6427" d="M1020.334,602.981c-27.579,89.987-38.657,261.74-38.657,261.74H315.164c2.159-81.681-45.551-250.846-47-263.862-1.227-10.857,42.938-67.07,57.55-85.337a15.274,15.274,0,0,1,11.961-5.741H940.113a15.4,15.4,0,0,1,8.735,2.724,229.414,229.414,0,0,1,70.358,78.835,15.225,15.225,0,0,1,1.129,11.642Z" transform="translate(75.064 313.115)" fill="#c4edfa"/>
    <rect id="Rectangle_1049" data-name="Rectangle 1049" width="531.209" height="62.175" rx="10.47" transform="translate(447.311 1013.173)" fill="#fff" opacity="0.1"/>
    <path id="Path_6428" data-name="Path 6428" d="M334.843,583.52S301.6,480.861,356.533,466.409s174.919,4.343,174.919,4.343,93.974-47.711,202.424-10.109c0,0,154.7-46.275,185.064-1.448S911.7,583.532,911.7,583.532Z" transform="translate(87.932 297.206)" fill="#c4edfa"/>
    <path id="Path_6429" data-name="Path 6429" d="M270.54,550.286l27.468-54.937,23.138,106.99L321.4,652Z" transform="translate(128.361 364.41)" opacity="0.1"/>
    <path id="Path_6430" data-name="Path 6430" d="M795.328,550.286,767.86,495.35,736,596.795l6.134,57.66Z" transform="translate(233.932 364.41)" opacity="0.1"/>
    <path id="Path_6431" data-name="Path 6431" d="M310.14,580.711l522.511-2.871,5.778,57.832-526.265-1.435Z" transform="translate(137.343 383.12)" fill="#dff1fd"/>
    <path id="Path_6433" data-name="Path 6433" d="M693.268,114.763a67.734,67.734,0,0,1-8.514-11.875c-3.889-7.533-4.809-16.194-6.895-24.426S671.933,61.74,664.5,57.606c-8.2-4.478-19.138-2.7-26.732-7.7a152.327,152.327,0,0,0-18.979-4.49c-6.576-1.1-13.495-1.742-19.727.7-9.422,3.68-14.722,13.4-21.469,21A61.34,61.34,0,0,1,542.37,86.742a52.3,52.3,0,0,0,31.59-1.975,37.859,37.859,0,0,1-12.612,19.224,30.584,30.584,0,0,0,18.6-3.656q-1.031,10.931-2.049,21.874c-.626,6.7-2.208,14.722-8.514,17.077,10.722-2,21.788-4.785,30.057-11.9,5.95-5.116,9.962-12.072,13.875-18.881,5.312-9.275,10.8-19.212,10.244-29.885a23.947,23.947,0,0,0,26.315,13.127c-11.041,10.477-12.869,27.137-14.023,42.313-.282,3.68-.54,7.508.724,11.041a20.228,20.228,0,0,0,4.343,6.551c5.508,6,12.513,10.379,19.42,14.722a10.059,10.059,0,0,0,4.11,1.779,10.379,10.379,0,0,0,5.03-1.227l.822-.344a55.821,55.821,0,0,1-8.588-24.536l35.43,15.323,2.9-.761a54.776,54.776,0,0,1-3.975-15.789l26.511,11.471c3.447-.466,6.919-.847,10.391-1.129C716.81,142.918,704.8,128.65,693.268,114.763Z" transform="translate(137.262 207.569)" fill="#2f2e41"/>
    <g id="Group_187" data-name="Group 187" transform="translate(679.632 276.412)" opacity="0.05">
      <path id="Path_6434" data-name="Path 6434" d="M574.375,113.713l-.147,1.411a34.474,34.474,0,0,0,2.6-11.238Q577.859,92.968,578.89,82A30.473,30.473,0,0,1,566.3,85.84a37.532,37.532,0,0,1-8.453,9.729,30.585,30.585,0,0,0,18.586-3.754Q575.393,102.77,574.375,113.713Z" transform="translate(-538.859 -60.322)"/>
      <path id="Path_6435" data-name="Path 6435" d="M576.414,69.41A52.1,52.1,0,0,1,564.8,72.44a61.046,61.046,0,0,1-22.426,8.735,52.311,52.311,0,0,0,29.161-1.1,37.468,37.468,0,0,0,4.883-10.661Z" transform="translate(-542.37 -63.178)"/>
      <path id="Path_6436" data-name="Path 6436" d="M637.151,77.42a23.947,23.947,0,0,1-26.3-13.09A33.909,33.909,0,0,1,609.29,75.9a24.266,24.266,0,0,0,20.5,11.826,35,35,0,0,1,7.361-10.305Z" transform="translate(-527.192 -64.33)"/>
      <path id="Path_6437" data-name="Path 6437" d="M610.766,91.5c-3.914,6.809-7.925,13.765-13.875,18.881-6.956,5.975-15.949,8.894-24.929,10.87-1.08,4.785-3.177,9.189-7.582,10.845,10.722-2,21.788-4.785,30.057-11.9,5.95-5.116,9.962-12.072,13.875-18.881,4.5-7.864,9.115-16.206,10.084-25.064A108.541,108.541,0,0,1,610.766,91.5Z" transform="translate(-537.378 -61.626)"/>
      <path id="Path_6438" data-name="Path 6438" d="M669.64,114.88a52.76,52.76,0,0,0,2.576,11.986l21.481,9.3c3.447-.466,6.919-.847,10.391-1.129a83.227,83.227,0,0,1-18.905-13.495Z" transform="translate(-513.504 -52.865)"/>
      <path id="Path_6439" data-name="Path 6439" d="M645.534,144.753c-6.907-4.306-13.912-8.686-19.42-14.722a20.23,20.23,0,0,1-4.343-6.551c-1.227-3.472-1.006-7.361-.724-11.041q.541-8.262,1.9-16.439c-2.785,8.306-3.68,17.593-4.355,26.389-.282,3.68-.54,7.508.724,11.041a20.232,20.232,0,0,0,4.343,6.551c5.508,6,12.513,10.379,19.42,14.722a10.06,10.06,0,0,0,4.11,1.779,10.379,10.379,0,0,0,5.03-1.227l.822-.343a51.419,51.419,0,0,1-4.453-8.612,13.409,13.409,0,0,1-3.055-1.546Z" transform="translate(-525.134 -57.147)"/>
      <path id="Path_6440" data-name="Path 6440" d="M641.64,115.88a52.246,52.246,0,0,0,2.564,11.986l30.413,13.151,2.9-.761a58.124,58.124,0,0,1-3.128-10.219Z" transform="translate(-519.855 -52.638)"/>
    </g>
    <path id="Path_6441" data-name="Path 6441" d="M548.358,156c-2.748,1.558-4.2,4.662-5.214,7.643-4.809,14.035-4.024,29.3-6.22,43.969-1.816,12.121-5.68,23.923-6.539,36.142-.564,8.085.172,16.341-1.914,24.168a58.886,58.886,0,0,1-6.5,14.317A197.344,197.344,0,0,1,504.7,307.082c-5.938,7.287-9.741,15.556-17.077,21.432-4.907,3.987-11.1,6.895-14.391,12.342-4.306,7.128-2.454,16.329.65,24.07,1.362,3.484,3.153,7.152,6.514,8.8s7.25.822,10.293-1.116a25.764,25.764,0,0,0,7.263-7.913c5.349-8.085,9.385-16.967,14.624-25.125,3.558-5.533,7.655-10.7,11.753-15.863l6.379-8.048c6.49-8.183,13.029-16.415,20.856-23.309a19.3,19.3,0,0,0,4.159-4.711,17.692,17.692,0,0,0,1.718-6.772l3.5-30.106c1.337-11.593,3.742-23.408,5.643-34.927,2.184-13.188,4.306-27.088-.331-39.626A38.559,38.559,0,0,0,548.358,156Z" transform="translate(121.006 232.874)" fill="#f68389"/>
    <path id="Path_6442" data-name="Path 6442" d="M565.126,176.206A38.559,38.559,0,0,0,547.2,156a7.939,7.939,0,0,0-1.521,1.165,37.442,37.442,0,0,1,10.906,15.409c4.637,12.538,2.454,26.438.331,39.626-1.9,11.52-4.306,23.309-5.643,34.927l-3.5,30.106a17.691,17.691,0,0,1-1.718,6.772,19.3,19.3,0,0,1-4.269,4.613c-7.8,6.944-14.341,15.176-20.856,23.309l-6.379,8.048c-4.1,5.165-8.2,10.33-11.753,15.863-5.238,8.158-9.275,17.04-14.624,25.125a25.764,25.764,0,0,1-7.263,7.913,12.6,12.6,0,0,1-5.128,1.889,9.813,9.813,0,0,0,3.423,2.907c3.239,1.583,7.25.822,10.293-1.116a25.763,25.763,0,0,0,7.263-7.913c5.349-8.085,9.385-16.967,14.624-25.125,3.558-5.533,7.655-10.7,11.753-15.863l6.379-8.048c6.49-8.183,13.029-16.415,20.856-23.309a19.3,19.3,0,0,0,4.183-4.662,17.691,17.691,0,0,0,1.718-6.772l3.5-30.106c1.337-11.593,3.742-23.408,5.643-34.927C567.641,202.619,569.764,188.744,565.126,176.206Z" transform="translate(122.161 232.874)" opacity="0.05"/>
    <path id="Path_6443" data-name="Path 6443" d="M679.53,383.607c-.626,3.68-1.116,8.588-4.134,10.722-2.282,1.632-4.564,3.263-6.821,4.907a102.752,102.752,0,0,0-13.409,11.532c-2.294,2.454-4.4,5.005-6.711,7.361-2.589,2.7-5.386,5.177-8.207,7.631-10.759,9.336-20.856,20.733-33.124,28.045-20.255,12.121-40.755,24.426-57.231,41.319a8.133,8.133,0,0,0-2.993,7.631c.208,6.134,1.828,12.428,2.846,18.525,1.8,10.82-1.644,21.751-5.03,32.179-4.907,14.918-6.882,30.584-13.888,44.619-5.41,10.833-10.857,21.788-13.618,33.565a154.1,154.1,0,0,0-2.944,21.334A95.577,95.577,0,0,0,513.7,668.3c.307,4.478,3.116,8.244,4.821,12.391,1.8,4.38-.38,9.569-3.877,12.771s-8.085,4.907-12.452,6.7q-6.036,2.515-11.826,5.557c-3.852,2.036-7.741,4.331-10.293,7.864-2.957,4.1-3.865,9.532-7.361,13.176-3.68,3.864-9.459,4.846-14.808,5.238a117.017,117.017,0,0,1-26.683-1.1,13.826,13.826,0,0,1-5.852-1.926,5.055,5.055,0,0,1-2.208-5.374c.773-2.453,3.619-3.337,6.073-3.926,6.428-1.558,13.838-3.312,20.267-4.907l4.233-13.495a101.1,101.1,0,0,1,4.257-11.912c1.668-3.68,3.766-7.226,5.631-10.845,6.956-13.421,11.1-28.671,14.66-43.368a213.821,213.821,0,0,0,5.889-45.748c.147-7.582-.11-15.176.442-22.733.81-11.041,3.325-21.874,4.907-32.829s.871-23.542.294-34.6a72.185,72.185,0,0,1,19.715-53.047c4.772-4.969,10.232-9.226,15.176-14.01a209.564,209.564,0,0,0,15.384-17.421c22.684-27.431,47.024-53.783,75.424-75.253,7.054-5.337,15.568-6.355,23.751-9.729a58.227,58.227,0,0,1,16.721-4.134,3.926,3.926,0,0,1,1.926.16,4.011,4.011,0,0,1,1.521,1.484c.123.184.258.368.368.552,9.152,13.4,13.814,29.284,18.329,44.877C679.112,376.283,680.143,379.975,679.53,383.607Z" transform="translate(110.196 271.337)" fill="#f68389"/>
    <path id="Path_6444" data-name="Path 6444" d="M673.235,372.713c-4.515-15.593-9.177-31.48-18.329-44.877-.11-.184-.245-.368-.368-.552a4.012,4.012,0,0,0-1.521-1.484,3.927,3.927,0,0,0-1.926-.16,56.964,56.964,0,0,0-7.852,1.3l.258.343c.123.184.258.368.368.552,9.152,13.4,13.814,29.284,18.329,44.877,1.031,3.546,2.061,7.238,1.448,10.87s-1.116,8.588-4.134,10.722c-2.282,1.632-4.564,3.263-6.821,4.907a102.755,102.755,0,0,0-13.409,11.532c-2.294,2.454-4.4,5.005-6.711,7.361-2.589,2.7-5.386,5.177-8.207,7.631-10.759,9.336-20.856,20.733-33.124,28.045C570.98,465.9,550.48,478.206,534,495.1a8.134,8.134,0,0,0-2.993,7.655c.208,6.134,1.828,12.428,2.846,18.525,1.8,10.82-1.644,21.751-5.03,32.179-4.907,14.918-6.882,30.584-13.888,44.619-5.41,10.833-10.857,21.788-13.618,33.565a154.108,154.108,0,0,0-2.944,21.334,95.577,95.577,0,0,0-.564,15.323c.307,4.478,3.116,8.244,4.821,12.391,1.8,4.38-.38,9.569-3.877,12.771s-8.085,4.907-12.452,6.7q-6.036,2.515-11.826,5.557c-3.852,2.036-7.741,4.331-10.293,7.864-2.957,4.1-3.864,9.532-7.361,13.176-3.68,3.864-9.459,4.846-14.808,5.238l-3.018.172a118.838,118.838,0,0,0,14.022-.184c5.349-.393,11.041-1.374,14.808-5.239,3.484-3.68,4.392-9.078,7.361-13.176,2.552-3.533,6.441-5.827,10.293-7.864s7.8-3.877,11.827-5.557c4.367-1.828,8.943-3.509,12.452-6.7s5.68-8.391,3.877-12.771c-1.705-4.147-4.515-7.913-4.821-12.391a95.569,95.569,0,0,1,.564-15.323,154.082,154.082,0,0,1,2.944-21.334c2.76-11.777,8.207-22.733,13.618-33.565,7.005-14.035,9.029-29.7,13.887-44.619,3.386-10.428,6.833-21.359,5.03-32.179-1.018-6.134-2.638-12.342-2.846-18.525a8.133,8.133,0,0,1,3.042-7.557c16.476-16.893,36.976-29.2,57.231-41.319,12.268-7.361,22.328-18.709,33.124-28.045,2.822-2.454,5.619-4.907,8.207-7.631,2.306-2.454,4.416-4.993,6.711-7.361A102.748,102.748,0,0,1,663.739,399.3c2.257-1.668,4.539-3.3,6.821-4.907,3.018-2.159,3.509-7.066,4.134-10.722S674.265,376.283,673.235,372.713Z" transform="translate(113.816 271.337)" opacity="0.05"/>
    <path id="Path_6445" data-name="Path 6445" d="M614.14,351.872l13.495,26.99s3.68,96.918,8.588,112.866a158.848,158.848,0,0,1,4.1,16.685,350.3,350.3,0,0,0,8.747,35.578,102.79,102.79,0,0,1,3.1,11.557c0,2.454,4.588,26.99,6.134,36.8,1.84,11.655,17.789,54.593,20.242,70.542s3.067,26.376.613,43.552,1.227,28.217,35.577,28.217,7.361-12.268,7.361-12.268-11.655-9.2-14.108-38.645c-1.607-19.322.208-31.5,1.656-37.6a130.14,130.14,0,0,0,3.239-20.255,224.984,224.984,0,0,0-5.57-70,314.064,314.064,0,0,1-8.7-93.851c1.227-22.659,3.828-45.637,8.821-58.642,12.268-31.9,8.588-103.052-11.041-110.413s-60.114,0-60.114,0Z" transform="translate(153.54 263.201)" fill="#f68389"/>
    <path id="Path_6446" data-name="Path 6446" d="M711.988,722.369s-11.655-9.2-14.108-38.644c-1.607-19.322.209-31.5,1.656-37.6a130.166,130.166,0,0,0,3.239-20.255,224.984,224.984,0,0,0-5.57-70,314.061,314.061,0,0,1-8.7-93.826c1.227-22.659,3.828-45.637,8.821-58.642,12.268-31.9,8.588-103.052-11.041-110.413-7.361-2.748-17.593-3.447-27.566-3.239,7.913.172,15.593,1.055,21.432,3.239,19.629,7.361,23.309,78.516,11.041,110.413-4.993,13-7.557,35.982-8.821,58.642a314.061,314.061,0,0,0,8.759,93.827,224.987,224.987,0,0,1,5.57,70,130.158,130.158,0,0,1-3.288,20.255c-1.448,6.134-3.263,18.279-1.656,37.6,2.454,29.443,14.108,38.644,14.108,38.644s25.37,11.532-4.4,12.268h3.177C738.978,734.637,711.988,722.369,711.988,722.369Z" transform="translate(163.651 263.201)" opacity="0.05"/>
    <path id="Path_6447" data-name="Path 6447" d="M539.67,217.479a173.189,173.189,0,0,0,38.816,113.75l53.685-34.535c11.36-7.361,22.77-14.648,34.878-20.659,1.484-.748,2.6-2.871,3.914-3.889-11.25-5.214-18.046-17.335-20.132-29.554s-.184-24.745,1.718-37c-13.7-3.938-28.057-5.067-42.3-5.349C584.854,199.715,559.839,202.058,539.67,217.479Z" transform="translate(136.637 242.893)" fill="#f68389"/>
    <path id="Path_6448" data-name="Path 6448" d="M644.182,242.58c-2.086-12.268-.184-24.745,1.718-37-13.7-3.938-28.057-5.067-42.3-5.349q-5.079-.11-10.109,0h1.521c14.243.282,28.6,1.411,42.3,5.349-1.9,12.268-3.8,24.769-1.718,37s8.882,24.34,20.132,29.554c-1.313,1.018-2.454,3.141-3.914,3.889-12.109,6.011-23.518,13.348-34.878,20.66L568.93,327.549c.957,1.227,1.914,2.454,2.907,3.68l53.685-34.535c11.36-7.361,22.77-14.648,34.878-20.66,1.484-.748,2.6-2.871,3.914-3.889C653.065,266.92,646.3,254.8,644.182,242.58Z" transform="translate(143.286 242.893)" opacity="0.05"/>
    <path id="Path_6449" data-name="Path 6449" d="M584.962,121.607c-2.2,6.22-3.03,12.882-5.3,19.089a6.76,6.76,0,0,1-1.693,2.858,7.152,7.152,0,0,1-3.9,1.227l-8.588.981c.589,6.956,5.41,13.041,11.373,16.672,13.311,8.121,30.818,5.1,44.656-2.061,7.447-3.84,14.943-9.814,15.948-18.083-2.453,1.828-6.134.343-7.716-2.27s-1.4-5.864-.994-8.87a60.656,60.656,0,0,1,4.183-15.36,4.208,4.208,0,0,0,.491-2.454c-.368-1.57-2.319-2.061-3.926-2.257-9.741-1.153-20.341-3.68-30.13-3.57C593.648,107.584,584.962,114.712,584.962,121.607Z" transform="translate(142.503 221.875)" fill="#fbb3b2"/>
    <path id="Path_6450" data-name="Path 6450" d="M584.962,121.607c-2.2,6.22-3.03,12.882-5.3,19.089a6.76,6.76,0,0,1-1.693,2.858,7.152,7.152,0,0,1-3.9,1.227l-8.588.981c.589,6.956,5.41,13.041,11.373,16.672,13.311,8.121,30.818,5.1,44.656-2.061,7.447-3.84,14.943-9.814,15.948-18.083-2.453,1.828-6.134.343-7.716-2.27s-1.4-5.864-.994-8.87a60.656,60.656,0,0,1,4.183-15.36,4.208,4.208,0,0,0,.491-2.454c-.368-1.57-2.319-2.061-3.926-2.257-9.741-1.153-20.341-3.68-30.13-3.57C593.648,107.584,584.962,114.712,584.962,121.607Z" transform="translate(142.503 221.875)" fill="#f68389" opacity="0.562"/>
    <circle id="Ellipse_972" data-name="Ellipse 972" cx="38.031" cy="38.031" r="38.031" transform="translate(728.422 271.566)" fill="#f68389"/>
    <path id="Path_6451" data-name="Path 6451" d="M607.989,150.827c-3.055,1.926-7.226.638-9.974-1.718s-4.539-5.57-6.993-8.318-5.754-5.067-9.336-4.6c-2.834.38-5.14,2.454-7.79,3.484-7.361,3.018-16.525-1.693-23.641,1.987-3.092,1.595-5.239,4.527-7.447,7.226A78.967,78.967,0,0,1,526.3,164.015c5.435,4.515,11.127,9.974,11.569,17.028.564,9-7.459,15.85-12.268,23.469-4.564,7.214-6.428,16.378-3.828,24.536s10.1,14.8,18.623,15.286c10.722-8.367,23.849-13.912,37.455-14.121a39.049,39.049,0,0,1,11.8,1.4,72.825,72.825,0,0,1,9.373,3.938,133.808,133.808,0,0,0,60.911,12.121c-3.03-8.588,4.061-17.58,7.643-25.923,2.65-6.2,3.68-12.943,5.668-19.359a64.015,64.015,0,0,1,30.805-36.927c-3.055-10.452-11.557-19.1-20.684-25.015a31.9,31.9,0,0,0-7.361-3.68c-5.251-1.718-10.906-1.619-16.427-1.5l-13.213.282a12.121,12.121,0,0,0-3.19.356,13.066,13.066,0,0,0-3.852,2.319C630.158,145.049,617.656,144.766,607.989,150.827Z" transform="translate(132.321 228.159)" fill="#fec230"/>
    <path id="Path_6452" data-name="Path 6452" d="M659.689,81.282c-1.521-4.024-2.993-8.158-5.533-11.63-4.331-5.913-11.25-9.262-18.01-12.072-1.767-.736-3.68-1.448-5.533-.81a7.03,7.03,0,0,0-3.165,2.883c-1.767-5.876-8.183-8.011-13.924-7.042C601.858,54.587,593.9,65.1,587.074,74.8L575.837,90.839c-2.576,3.68-5.288,7.987-4.331,12.379A74.836,74.836,0,0,0,597.735,97.3c-5.594,10.857-14.464,19.629-23.2,28.217,10.747-2.073,20.12-8.882,27.284-17.175S614.2,90.311,619.364,80.656c1.644-3.079,4.4-6.846,6.33-10.722l24.328,24.917c12.906,13.286,26.033,26.757,42.055,36.068C676.435,118.479,666.793,99.991,659.689,81.282Z" transform="translate(143.826 209.373)" fill="#2f2e41"/>
    <g id="Group_188" data-name="Group 188" transform="translate(652.93 386.653)" opacity="0.05">
      <path id="Path_6453" data-name="Path 6453" d="M536.211,173.064a14.859,14.859,0,0,0,.638-5.226c-.294-4.772-2.993-8.8-6.392-12.268-1.668,1.362-3.4,2.662-5.177,3.877C529.844,163.176,534.53,167.605,536.211,173.064Z" transform="translate(-519.544 -153.877)"/>
      <path id="Path_6454" data-name="Path 6454" d="M659.781,223.942a133.723,133.723,0,0,1-60.74-12.084,72.81,72.81,0,0,0-9.373-3.938,39.049,39.049,0,0,0-11.8-1.4c-13.605.209-26.732,5.754-37.455,14.121-8.588-.491-16.022-7.152-18.623-15.286a25.614,25.614,0,0,1-.834-3.545,26.536,26.536,0,0,0,.834,12.133c2.6,8.134,10.1,14.8,18.623,15.286,10.722-8.367,23.849-13.912,37.455-14.121a39.049,39.049,0,0,1,11.8,1.4,72.814,72.814,0,0,1,9.373,3.938,133.808,133.808,0,0,0,60.911,12.121,14.721,14.721,0,0,1-.172-8.624Z" transform="translate(-520.605 -143.389)"/>
      <path id="Path_6455" data-name="Path 6455" d="M647.593,189.461c-2.024,6.416-3.018,13.164-5.668,19.359-3.533,8.232-10.477,17.175-7.729,25.6,1.509-5.741,5.373-11.532,7.729-17.016,2.65-6.2,3.68-12.943,5.668-19.359A64.015,64.015,0,0,1,678.4,161.121a33.4,33.4,0,0,0-2.932-6.932,64.125,64.125,0,0,0-27.873,35.271Z" transform="translate(-494.983 -154.19)"/>
    </g>
    <path id="Path_6456" data-name="Path 6456" d="M632.36,172.3c1.472,8.06,5.8,15.249,9.753,22.414,12.194,22.083,21.53,45.6,31.1,68.934,3.165,7.692,6.428,15.519,11.814,21.85a102.608,102.608,0,0,0,10.538,9.974A380.811,380.811,0,0,1,722.7,322.869l54.519,58.752a57.045,57.045,0,0,0,9.422,7.9c2.908,2.049,5.815,4.1,8.87,5.913,8.784,5.263,18.6,8.526,28.315,11.753,2.073.687,4.4,1.362,6.355.393s2.834-3.312,3.263-5.472a29.443,29.443,0,0,0-12.5-29.812c-6.895-4.478-15.286-5.778-23.175-8.072S781.687,358,778.08,350.62a226.966,226.966,0,0,0-14.722-26.057c-4.208-6.306-8.968-12.268-12.918-18.733-3.607-5.938-6.514-12.268-10.354-18.1-9.275-14.022-23.861-24.647-29.861-40.362-6.392-16.758-13.765-32.829-20.39-49.5-3.251-8.2-7.8-15.875-10.391-24.3-1.337-4.343-2.135-8.87-3.865-13.066s-4.588-8.207-8.759-10.011c-6.747.245-10.919,7.116-15.531,12.06a29.971,29.971,0,0,1-18.93,9.753Z" transform="translate(157.673 231.624)" fill="#f68389"/>
    <path id="Path_6457" data-name="Path 6457" d="M706.74,294.145c-15.433.27-31.014,3.987-44.1,12.182s-23.481,21.113-27.162,36.117a80.36,80.36,0,0,0-1.546,8.674c-.761,5.582-1.227,11.336-2.527,16.611l-.11.466a95.2,95.2,0,0,0-55.771-15.519c.307-1.472-.748.245,0-1.018a5.46,5.46,0,0,0,.65-1.264q2.374-1.84,4.785-3.68c7.054-5.337,15.568-6.355,23.751-9.729a58.227,58.227,0,0,1,16.721-4.134,3.926,3.926,0,0,1,1.926.16,4.012,4.012,0,0,1,1.521,1.484c.945,1.362,1.84,2.748,2.7,4.159l17.482-46.619s40.485-7.361,60.114,0l.429.172Z" transform="translate(144.719 262.986)" opacity="0.05"/>
    <path id="Path_6458" data-name="Path 6458" d="M831.41,396.227c-1.951.969-4.281.294-6.355-.393-9.716-3.227-19.531-6.49-28.315-11.753-3.055-1.816-5.962-3.864-8.87-5.913a57.048,57.048,0,0,1-9.422-7.9q-27.26-29.358-54.519-58.691a380.8,380.8,0,0,0-27.137-27.37,102.613,102.613,0,0,1-10.538-9.974c-5.386-6.33-8.588-14.157-11.814-21.849-9.569-23.309-18.905-46.852-31.1-68.934a119.85,119.85,0,0,1-7.815-15.63c-1.03.233-2.073.429-3.165.577,1.472,8.06,5.8,15.249,9.753,22.414,12.194,22.083,21.53,45.6,31.1,68.934,3.165,7.692,6.428,15.519,11.814,21.849a102.6,102.6,0,0,0,10.538,9.974,380.821,380.821,0,0,1,27.137,27.37q27.272,29.37,54.519,58.752a57.045,57.045,0,0,0,9.422,7.9c2.908,2.049,5.815,4.1,8.87,5.913,8.784,5.263,18.6,8.526,28.315,11.753,2.073.687,4.4,1.362,6.355.393s2.834-3.312,3.263-5.472a26.68,26.68,0,0,0,.515-4.907,5.68,5.68,0,0,1-2.552,2.957Z" transform="translate(157.673 235.555)" opacity="0.05"/>
    <path id="Path_6459" data-name="Path 6459" d="M655.4,176.268c7.263-3.95,18.635-7.7,25.248-12.648.92-.687-1.3-3.754-1.227-4.907,0-.638-.932-1.865-1.227-2.454C673.132,146.064,660,141.7,648.853,143.99a51.97,51.97,0,0,0-10.685,3.914,22.328,22.328,0,0,0-7.079,4.318c-3.141,3.214-4.061,7.974-4.429,12.452-.307,3.815-.319,7.8,1.227,11.323,1.951,4.527,5.913,12.6,11.4,10.44C644.449,184.4,650.276,179.065,655.4,176.268Z" transform="translate(156.343 230.015)" fill="#fec230"/>
    <ellipse id="Ellipse_973" data-name="Ellipse 973" cx="2.674" cy="3.68" rx="2.674" ry="3.68" transform="translate(735.047 545.644) rotate(-30)" opacity="0.05"/>
    <path id="Path_6460" data-name="Path 6460" d="M577.413,359.232a95.2,95.2,0,0,1,55.771,15.519c2.036-8.183,2.172-17.556,4.183-25.763,3.68-14.992,14.084-27.91,27.162-36.105s28.671-11.925,44.1-12.182c-7.582-13.262-16.439-25.763-28.805-34.755-4.821-3.484-10.244-6.514-13.495-11.5-4.981.945-9.385,1.9-13.728,4.527l-56.752,34.351a186.258,186.258,0,0,1-16.807,9.385,93.747,93.747,0,0,1-15.176,5.594,11.961,11.961,0,0,0-2.073,9.814,42.5,42.5,0,0,0,4.282,10.489l9.974,19.335c1.668,3.239,3.337,7.238,1.411,10.33C576.664,359.489,577.719,357.772,577.413,359.232Z" transform="translate(141.6 255.203)" fill="#028ffa"/>
    <g id="Group_189" data-name="Group 189" transform="translate(715.174 273.087)" opacity="0.05">
      <path id="Path_6461" data-name="Path 6461" d="M597.728,84a74.836,74.836,0,0,1-25.481,5.9,10.44,10.44,0,0,0-.736,6.134A74.5,74.5,0,0,0,592.8,91.962,63.782,63.782,0,0,0,597.728,84Z" transform="translate(-571.341 -56.544)"/>
      <path id="Path_6462" data-name="Path 6462" d="M675.471,111.5c-9.25-7.582-17.7-16.292-26.045-24.88l-24.328-25c-1.926,3.877-4.686,7.643-6.33,10.722C613.6,82,608.389,91.75,601.224,100.031a55.33,55.33,0,0,1-18.267,14.219c-2.92,3.1-5.975,6.134-9.017,9.078,10.747-2.073,20.12-8.882,27.284-17.175S613.6,88.119,618.768,78.464c1.644-3.079,4.4-6.846,6.33-10.722l24.328,25.015c12.906,13.286,26.033,26.757,42.055,36.068a82.489,82.489,0,0,1-16.01-17.323Z" transform="translate(-570.752 -61.62)"/>
    </g>
    <rect id="Rectangle_1050" data-name="Rectangle 1050" width="169.3" height="262.537" rx="7.46" transform="translate(1161.314 907.226)" fill="#028ffa"/>
    <circle id="Ellipse_974" data-name="Ellipse 974" cx="39.258" cy="39.258" r="39.258" transform="translate(1206.707 934.829)" opacity="0.1"/>
    <circle id="Ellipse_975" data-name="Ellipse 975" cx="36.522" cy="36.522" r="36.522" transform="translate(1209.442 937.564)" fill="#fec230"/>
    <circle id="Ellipse_976" data-name="Ellipse 976" cx="52.753" cy="52.753" r="52.753" transform="translate(1193.211 1036.654)" opacity="0.1"/>
    <circle id="Ellipse_977" data-name="Ellipse 977" cx="49.072" cy="49.072" r="49.072" transform="translate(1196.892 1040.334)" fill="#fec230"/>
    <g id="Group_190" data-name="Group 190" transform="translate(360.532 -304.277)">
      <path id="Subtraction_4" data-name="Subtraction 4" d="M6.92,6.81C3.105,6.81,0,4.408,0,1.458A4.239,4.239,0,0,1,.26,0H13.584a4.269,4.269,0,0,1,.258,1.458C13.842,4.408,10.736,6.81,6.92,6.81Z" transform="translate(399 611.002)" fill="#2f2e41"/>
    </g>
  </g>
</svg>
